# AST/ASF file generated using VICON BodyLanguage
# -----------------------------------------------
:version 1.10
:name VICON
:units
  mass 1.0
  length 0.45
  angle deg
:documentation
   .ast/.asf automatically generated from VICON data using
   VICON BodyBuilder and BodyLanguage model FoxedUp or BRILLIANT.MOD
:root
   order TX TY TZ RX RY RZ
   axis XYZ
   position 0 0 0  
   orientation 0 0 0 
:bonedata
  begin
     id 1 
     name lhipjoint
     direction 0.541323 -0.757556 0.364798 
     length 2.47576 
     axis 0 0 0  XYZ
  end
  begin
     id 2 
     name lfemur
     direction 0.34202 -0.939693 0  
     length 7.46493  
     axis 0 0 20  XYZ
    dof rx ry rz
    limits (-160.0 20.0)
           (-70.0 70.0)
           (-60.0 70.0)
  end
  begin
     id 3 
     name ltibia
     direction 0.34202 -0.939693 0   
     length 7.73805   
     axis 0 0 20   XYZ
    dof rx
    limits (-10.0 170.0)
  end
  begin
     id 4 
     name lfoot
     direction 0.107174 -0.294458 0.949636   
     length 2.25864   
     axis -90 7.62852e-016 20   XYZ
    dof rx rz
    limits (-45.0 90.0)
           (-70.0 20.0)
  end
  begin
     id 5 
     name ltoes
     direction 1.53606e-011 -4.21934e-011 1   
     length 1.12451   
     axis -90 7.62852e-016 20   XYZ
    dof rx
    limits (-90.0 20.0)
  end
  begin
     id 6 
     name rhipjoint
     direction -0.524745 -0.766967 0.36933   
     length 2.44538  
     axis 0 0 0  XYZ 
  end
  begin
     id 7 
     name rfemur
     direction -0.34202 -0.939693 0   
     length 7.61604   
     axis 0 0 -20   XYZ
    dof rx ry rz
    limits (-160.0 20.0)
           (-70.0 70.0)
           (-70.0 60.0)
  end
  begin
     id 8 
     name rtibia
     direction -0.34202 -0.939693 0   
     length 7.61056   
     axis 0 0 -20   XYZ
    dof rx
    limits (-10.0 170.0)
 end
 begin
     id 9 
     name rfoot
     direction -0.12616 -0.346623 0.929482   
     length 2.46372  
     axis -90 -7.62852e-016 -20   XYZ
    dof rx rz
    limits (-45.0 90.0)
           (-20.0 70.0)
  end
  begin
     id 10 
     name rtoes
     direction -1.53531e-011 -4.22004e-011 1   
     length 1.21611   
     axis -90 -7.62852e-016 -20   XYZ
    dof rx
    limits (-90.0 20.0)
  end
  begin
     id 11 
     name lowerback
     direction -0.000778023 0.997293 -0.0735223   
     length 2.06139   
     axis 0 0 0   XYZ
    dof rx ry rz
    limits (-20.0 45.0)
           (-30.0 30.0)
           (-30.0 30.0)
  end
  begin
     id 12 
     name upperback
     direction 0.0222598 0.999722 -0.0078355   
     length 2.06383   
     axis 0 0 0   XYZ
    dof rx ry rz
    limits (-20.0 45.0)
           (-30.0 30.0)
           (-30.0 30.0)
  end
  begin
     id 13 
     name thorax
     direction 0.0219654 0.999405 0.0265994   
     length 2.07163   
     axis 0 0 0   XYZ
    dof rx ry rz
    limits (-20.0 45.0)
           (-30.0 30.0)
           (-30.0 30.0)
  end
  begin
     id 14 
     name lowerneck
     direction 0.0213282 0.988147 0.15202   
     length 1.75969   
     axis 0 0 0   XYZ
    dof rx ry rz
    limits (-20.0 45.0)
           (-30.0 30.0)
           (-30.0 30.0)
  end
  begin
     id 15 
     name upperneck
     direction -0.0546456 0.982624 -0.177379   
     length 1.79244   
     axis 0 0 0   XYZ
    dof rx ry rz
    limits (-20.0 45.0)
           (-30.0 30.0)
           (-30.0 30.0)
  end
  begin
     id 16
     name head
     direction -0.0199987 0.996855 -0.076686  
     length 1.80555  
     axis 0 0 0   XYZ
    dof rx ry rz
    limits (-20.0 45.0)
           (-30.0 30.0)
           (-30.0 30.0)
  end
  begin
     id 17 
     name lclavicle
     direction 0.929565 0.363219 -0.063096  
     length 3.55722  
     axis 0 0 0   XYZ
    dof ry rz
    limits (-20.0 10.0)
           (0.0 20.0)
  end
  begin
     id 18 
     name lhumerus
     direction 1 -4.48993e-011 -2.36203e-027   
     length 4.92785   
     axis 180 -30 -90   XYZ
    dof rx ry rz
    limits (-60.0 90.0)
           (-90.0 90.0)
           (-90.0 90.0)
  end
  begin
     id 19
     name lradius
     direction 1 -4.48947e-011 2.02997e-027   
     length 3.44052   
     axis 180 -30 -90   XYZ
    dof rx
    limits (-10.0 170.0)
  end
  begin
     id 20
     name lwrist
     direction 1 -4.48962e-011 1.45991e-027   
     length 1.72026   
     axis 1.49639e-024 90 90   XYZ
    dof ry
    limits (-180.0 0.0)
 end
  begin
     id 21 
     name lhand
     direction 1 -4.48984e-011 2.91906e-027   
     length 0.654326   
     axis -1.863e-015 90 90   XYZ
    dof rx rz
    limits (-90.0 90.0)
           (-45.0 45.0)
  end
  begin
     id 22 
     name lfingers
     direction 1 -4.48961e-011 5.83968e-027   
     length 0.527534   
     axis -3.72598e-015 90 90   XYZ
    dof rx
    limits (0.0 90.0)
  end
  begin
     id 23
     name lthumb
     direction 0.707107 -6.34963e-011 0.707107   
     length 0.757437   
     axis -90 45 -6.68868e-015   XYZ
    dof rx rz
    limits (-45.0 45.0)
           (-45.0 45.0)
  end
  begin
     id 24 
     name rclavicle
     direction -0.902944 0.422599 -0.0781198   
     length 3.54432  
     axis 0 0 0   XYZ 
    dof ry rz
    limits (-10.0 20.0)
           (-20.0 0.0)
  end
  begin
     id 25 
     name rhumerus
     direction -1 -4.48953e-011 -4.75835e-028  
     length 5.09181   
     axis 180 30 90   XYZ
    dof rx ry rz
    limits (-90.0 60.0)
           (-90.0 90.0)
           (-90.0 90.0)
  end
  begin
     id 26 
     name rradius
     direction -1 -4.48986e-011 -3.25889e-027   
     length 3.49865   
     axis 180 30 90   XYZ
    dof rx
    limits (-10.0 170.0)
  end
  begin
     id 27 
     name rwrist
     direction -1 -4.48963e-011 1.45989e-027   
     length 1.74933   
     axis 1.49639e-024 -90 -90   XYZ
    dof ry
    limits (-180.0 0.0)
  end
  begin
     id 28
     name rhand
     direction -1 -4.49003e-011 2.91844e-027   
     length 0.66641   
     axis -1.863e-015 -90 -90   XYZ
    dof rx rz
    limits (-90.0 90.0)
           (-45.0 45.0)
  end
  begin
     id 29
     name rfingers
     direction -1 -4.48973e-011 5.83886e-027   
     length 0.537277   
     axis -3.72598e-015 -90 -90   XYZ
    dof rx
    limits (0.0 90.0)
  end
  begin
     id 30
     name rthumb
     direction -0.707107 -6.34976e-011 0.707107   
     length 0.771425   
     axis -90 -45 6.68868e-015   XYZ
    dof rx rz
    limits (-45.0 45.0)
           (-45.0 45.0)
  end
:hierarchy
  begin
    root lhipjoint rhipjoint lowerback
    lhipjoint lfemur
    lfemur ltibia
    ltibia lfoot
    lfoot ltoes
    rhipjoint rfemur
    rfemur rtibia
    rtibia rfoot
    rfoot rtoes
    lowerback upperback
    upperback thorax
    thorax lowerneck lclavicle rclavicle
    lowerneck upperneck
    upperneck head
    lclavicle lhumerus
    lhumerus lradius
    lradius lwrist
    lwrist lhand lthumb
    lhand lfingers
    rclavicle rhumerus
    rhumerus rradius
    rradius rwrist
    rwrist rhand rthumb
    rhand rfingers
  end

#!OML:ASF H:\LiuWeirdWalks\Patient Classification 1\Patient 1\Session 1\male.ASF
:FULLY-SPECIFIED
:DEGREES
326
root 0.96237 17.4797 -11.6463 6.53701 3.62687 7.49537
lowerback 6.35012 -9.08505 -10.4596
upperback -1.42359 -12.8065 5.90984
thorax -1.37348 -6.33801 12.7232
lowerneck -20.5599 3.79365 12.0977
upperneck 14.9686 3.75329 -10.8765
head 8.47815 1.36045 -5.2147
rclavicle 1.66979e-014 -4.6118e-014
rhumerus -55.6066 -19.8312 -9.09018
rradius 35.4849
rwrist -2.97003
rhand -17.5265 -2.54588
rfingers 7.12502
rthumb 8.72727 -32.3455
lclavicle 1.66979e-014 -4.6118e-014
lhumerus 16.0463 10.582 77.1737
lradius 49.4723
lwrist 35.1902
lhand -19.1397 -3.07974
lfingers 7.12502
lthumb 7.17026 26.7788
rfemur -39.7753 -2.70999 10.0374
rtibia 30.8211
rfoot 5.20193 -11.9193
rtoes -8.78693
lfemur 22.3121 -4.396 -29.8191
ltibia -2.22639e-014
lfoot -2.62867 9.32038
ltoes -23.8443
327
root 0.945506 17.5034 -11.4571 6.67964 3.28774 7.13218
lowerback 6.32918 -8.99701 -10.2617
upperback -1.4883 -12.6677 6.19361
thorax -1.44564 -6.26588 12.9387
lowerneck -20.6232 3.87363 12.2213
upperneck 14.8955 3.83548 -10.9812
head 8.48001 1.39389 -5.25977
rclavicle -1.13307e-013 5.40694e-014
rhumerus -55.9748 -19.7059 -8.55494
rradius 35.2575
rwrist -2.57215
rhand -17.6322 -2.54423
rfingers 7.12502
rthumb 8.62528 -32.348
lclavicle -1.13307e-013 5.40694e-014
lhumerus 16.2625 9.85679 77.4836
lradius 49.8468
lwrist 34.9126
lhand -18.8399 -3.45258
lfingers 7.12502
lthumb 7.45966 26.3959
rfemur -39.8346 -2.77852 10.8323
rtibia 31.5693
rfoot 5.06017 -11.776
rtoes -7.45361
lfemur 22.6232 -4.22645 -29.3898
ltibia -5.725e-014
lfoot -1.43242 8.83121
ltoes -24.208
328
root 0.927974 17.5291 -11.2685 6.82224 2.939 6.87501
lowerback 6.30985 -8.90342 -10.1716
upperback -1.55833 -12.5313 6.42866
thorax -1.51323 -6.19323 13.1613
lowerneck -20.6678 3.94796 12.3154
upperneck 14.8426 3.91102 -11.0309
head 8.48277 1.42863 -5.28164
rclavicle -2.10712e-014 1.43125e-014
rhumerus -56.3139 -19.5633 -8.19414
rradius 35.0103
rwrist -2.26128
rhand -17.7343 -2.57803
rfingers 7.12502
rthumb 8.52671 -32.3859
lclavicle -2.10712e-014 1.43125e-014
lhumerus 16.3743 9.07784 77.7547
lradius 50.2232
lwrist 34.6276
lhand -18.5716 -3.83923
lfingers 7.12502
lthumb 7.71865 25.9999
rfemur -39.8619 -2.8721 11.508
rtibia 32.3551
rfoot 4.65643 -11.6686
rtoes -6.28699
lfemur 22.9097 -4.05501 -29.075
ltibia -3.18055e-015
lfoot -0.0943892 8.24145
ltoes -24.5247
329
root 0.909592 17.557 -11.0803 6.95125 2.60951 6.70676
lowerback 6.29779 -8.8058 -10.1602
upperback -1.61956 -12.3973 6.61019
thorax -1.57181 -6.12109 13.3691
lowerneck -20.7562 4.01161 12.4089
upperneck 14.8574 3.96238 -11.0371
head 8.5118 1.45554 -5.29303
rclavicle 1.31993e-013 -2.06736e-014
rhumerus -56.6633 -19.4751 -7.96028
rradius 34.7354
rwrist -1.95187
rhand -17.7916 -2.5971
rfingers 7.12502
rthumb 8.47148 -32.4072
lclavicle 1.31993e-013 -2.06736e-014
lhumerus 16.4225 8.22202 77.9813
lradius 50.586
lwrist 34.2887
lhand -18.3194 -4.18473
lfingers 7.12502
lthumb 7.96206 25.6453
rfemur -39.8254 -3.01142 12.0747
rtibia 33.1214
rfoot 4.10285 -11.5755
rtoes -5.21185
lfemur 23.1828 -3.90673 -28.8567
ltibia 3.81667e-014
lfoot 1.38799 7.55816
ltoes -24.844
330
root 0.891196 17.5865 -10.8921 7.0552 2.32382 6.60242
lowerback 6.28453 -8.71797 -10.1782
upperback -1.66257 -12.2792 6.73492
thorax -1.61337 -6.05779 13.5273
lowerneck -20.849 4.06787 12.4924
upperneck 14.8858 3.99803 -11.0006
head 8.54294 1.4788 -5.28996
rclavicle -6.67916e-014 3.02153e-014
rhumerus -57.0201 -19.4439 -7.88384
rradius 34.4468
rwrist -1.67558
rhand -17.8215 -2.60925
rfingers 7.12502
rthumb 8.44257 -32.4205
lclavicle -6.67916e-014 3.02153e-014
lhumerus 16.4258 7.29037 78.1406
lradius 50.9142
lwrist 33.9311
lhand -18.0936 -4.4924
lfingers 7.12502
lthumb 8.18 25.3293
rfemur -39.6987 -3.2453 12.5659
rtibia 33.8114
rfoot 3.44824 -11.4507
rtoes -4.22104
lfemur 23.4552 -3.80062 -28.7138
ltibia -2.8625e-014
lfoot 3.02714 6.80836
ltoes -25.0773
331
root 0.872495 17.6174 -10.7041 7.12726 2.10676 6.5339
lowerback 6.28651 -8.64526 -10.2006
upperback -1.69707 -12.1832 6.82156
thorax -1.65605 -6.00521 13.6466
lowerneck -20.9454 4.1149 12.5427
upperneck 14.9563 4.02582 -10.9282
head 8.5863 1.50024 -5.27064
rclavicle 1.32788e-013 -6.36111e-015
rhumerus -57.3823 -19.4382 -7.95369
rradius 34.1537
rwrist -1.3974
rhand -17.8015 -2.58902
rfingers 7.12502
rthumb 8.46195 -32.3995
lclavicle 1.32788e-013 -6.36111e-015
lhumerus 16.3793 6.30329 78.2604
lradius 51.1955
lwrist 33.4871
lhand -17.8703 -4.76067
lfingers 7.12502
lthumb 8.39553 25.0525
rfemur -39.4628 -3.57203 13.0085
rtibia 34.3913
rfoot 2.77265 -11.3198
rtoes -3.27054
lfemur 23.7285 -3.75725 -28.6155
ltibia 8.26944e-014
lfoot 4.83772 6.02292
ltoes -25.2943
332
root 0.853122 17.6499 -10.5164 7.16898 1.96765 6.45102
lowerback 6.29419 -8.58723 -10.1766
upperback -1.71738 -12.1032 6.88133
thorax -1.69758 -5.96148 13.7086
lowerneck -21.0647 4.15612 12.5951
upperneck 15.0578 4.04224 -10.848
head 8.64254 1.51695 -5.25121
rclavicle -5.1684e-014 1.59028e-015
rhumerus -57.7572 -19.4444 -8.18196
rradius 33.8758
rwrist -1.25183
rhand -17.7335 -2.51682
rfingers 7.12502
rthumb 8.52748 -32.3246
lclavicle -5.1684e-014 1.59028e-015
lhumerus 16.3248 5.24766 78.3234
lradius 51.3897
lwrist 32.9551
lhand -17.617 -4.9811
lfingers 7.12502
lthumb 8.63994 24.8221
rfemur -39.1141 -3.9404 13.4404
rtibia 34.8499
rfoot 2.13251 -11.2207
rtoes -2.33411
lfemur 23.999 -3.7812 -28.5065
ltibia 2.22639e-014
lfoot 6.82698 5.24492
ltoes -25.3578
333
root 0.833153 17.6833 -10.3291 7.18234 1.91013 6.351
lowerback 6.30353 -8.54714 -10.1084
upperback -1.73184 -12.0436 6.92585
thorax -1.73999 -5.92845 13.7272
lowerneck -21.1547 4.19541 12.625
upperneck 15.1538 4.06523 -10.7649
head 8.69222 1.53653 -5.22582
rclavicle -3.29983e-014 -7.95139e-015
rhumerus -58.1317 -19.4634 -8.54426
rradius 33.6087
rwrist -1.16181
rhand -17.6169 -2.39301
rfingers 7.12502
rthumb 8.64002 -32.1962
lclavicle -3.29983e-014 -7.95139e-015
lhumerus 16.2415 4.14949 78.3573
lradius 51.4962
lwrist 32.2914
lhand -17.3246 -5.17917
lfingers 7.12502
lthumb 8.92213 24.6122
rfemur -38.6573 -4.30937 13.8495
rtibia 35.1978
rfoot 1.52073 -11.1595
rtoes -1.47868
lfemur 24.2664 -3.87583 -28.3844
ltibia 0
lfoot 9.00542 4.52032
ltoes -25.2459
334
root 0.812303 17.7171 -10.1425 7.16716 1.93169 6.23689
lowerback 6.32032 -8.51617 -10.0045
upperback -1.74373 -11.9937 6.95695
thorax -1.79096 -5.89988 13.7113
lowerneck -21.2595 4.21472 12.5946
upperneck 15.2798 4.07391 -10.6567
head 8.75097 1.54826 -5.18407
rclavicle 1.50281e-013 1.59028e-014
rhumerus -58.5153 -19.458 -9.0522
rradius 33.3707
rwrist -1.21222
rhand -17.4518 -2.23602
rfingers 7.12502
rthumb 8.7994 -32.0326
lclavicle 1.50281e-013 1.59028e-014
lhumerus 16.116 2.99884 78.3788
lradius 51.5313
lwrist 31.5122
lhand -16.9949 -5.38175
lfingers 7.12502
lthumb 9.24023 24.3958
rfemur -38.0998 -4.63881 14.2221
rtibia 35.4524
rfoot 0.936497 -11.1729
rtoes -0.764665
lfemur 21.6142 -4.00468 -28.2518
ltibia 5.73498
lfoot 8.69992 4.87322
ltoes -24.8353
335
root 0.790762 17.7505 -9.95675 7.12827 2.03012 6.11633
lowerback 6.3264 -8.49328 -9.87207
upperback -1.74599 -11.9512 6.96974
thorax -1.83303 -5.87631 13.655
lowerneck -21.3329 4.2327 12.5726
upperneck 15.3908 4.08917 -10.5881
head 8.80128 1.56023 -5.15649
rclavicle 7.27552e-014 1.27222e-014
rhumerus -58.9064 -19.4198 -9.71248
rradius 33.1505
rwrist -1.29915
rhand -17.2523 -2.04763
rfingers 7.12502
rthumb 8.99191 -31.836
lclavicle 7.27552e-014 1.27222e-014
lhumerus 15.9601 1.8046 78.3971
lradius 51.4956
lwrist 30.6253
lhand -16.6076 -5.59677
lfingers 7.12502
lthumb 9.61395 24.1639
rfemur -37.453 -4.88354 14.5376
rtibia 35.6345
rfoot 0.369892 -11.3119
rtoes -0.203751
lfemur 19.5504 -4.21485 -28.085
ltibia 10.3036
lfoot 9.06454 5.07355
ltoes -23.9905
336
root 0.768149 17.7834 -9.77242 7.06877 2.17815 5.97446
lowerback 6.32935 -8.47007 -9.71538
upperback -1.75166 -11.9059 6.97916
thorax -1.88326 -5.85071 13.5812
lowerneck -21.3636 4.24122 12.5194
upperneck 15.4925 4.11122 -10.5453
head 8.84189 1.57178 -5.13169
rclavicle 5.64548e-014 1.59028e-014
rhumerus -59.2738 -19.3062 -10.5548
rradius 32.9543
rwrist -1.46368
rhand -17.0937 -1.8832
rfingers 7.12502
rthumb 9.14493 -31.6649
lclavicle 5.64548e-014 1.59028e-014
lhumerus 15.718 0.596993 78.4513
lradius 51.4358
lwrist 29.7154
lhand -16.1882 -5.84448
lfingers 7.12502
lthumb 10.0186 23.8971
rfemur -36.7364 -5.01699 14.8222
rtibia 35.7569
rfoot -0.179584 -11.5756
rtoes 0.171658
lfemur 17.9939 -4.06074 -27.7217
ltibia 13.8372
lfoot 9.86587 4.74519
ltoes -22.6229
337
root 0.744149 17.8153 -9.58901 6.97635 2.34549 5.81081
lowerback 6.32927 -8.43327 -9.54211
upperback -1.74718 -11.8407 6.97717
thorax -1.9324 -5.81559 13.4843
lowerneck -21.3516 4.24555 12.471
upperneck 15.587 4.13929 -10.5429
head 8.87457 1.58319 -5.12107
rclavicle 7.7526e-014 -9.54166e-015
rhumerus -59.6534 -19.2219 -11.4924
rradius 32.7618
rwrist -1.49407
rhand -16.9542 -1.72358
rfingers 7.12502
rthumb 9.27956 -31.4994
lclavicle 7.7526e-014 -9.54166e-015
lhumerus 15.4101 -0.620137 78.5449
lradius 51.3587
lwrist 28.8146
lhand -15.7236 -6.08565
lfingers 7.12502
lthumb 10.4668 23.6338
rfemur -35.9455 -5.03075 15.0889
rtibia 35.8278
rfoot -0.731409 -11.9562
rtoes 0.407176
lfemur 16.6368 -3.83434 -27.2899
ltibia 16.9893
lfoot 10.8416 4.34628
ltoes -20.9444
338
root 0.718595 17.8462 -9.40635 6.85367 2.51804 5.61266
lowerback 6.32065 -8.38132 -9.3432
upperback -1.73098 -11.7522 6.96504
thorax -1.97788 -5.76973 13.3592
lowerneck -21.3185 4.24395 12.4324
upperneck 15.6964 4.16707 -10.5753
head 8.90974 1.59199 -5.125
rclavicle 5.56597e-015 -2.54444e-014
rhumerus -60.0281 -19.1523 -12.5527
rradius 32.5849
rwrist -1.4647
rhand -16.8404 -1.56476
rfingers 7.12502
rthumb 9.38936 -31.3356
lclavicle 5.56597e-015 -2.54444e-014
lhumerus 15.0338 -1.83231 78.6786
lradius 51.2719
lwrist 27.8995
lhand -15.2592 -6.28769
lfingers 7.12502
lthumb 10.9147 23.4086
rfemur -35.0914 -4.93847 15.3694
rtibia 35.8493
rfoot -1.28559 -12.4372
rtoes 0.566221
lfemur 15.3926 -3.53291 -26.7775
ltibia 19.9375
lfoot 11.8399 3.93494
ltoes -19.1275
339
root 0.691005 17.8762 -9.22411 6.6954 2.69081 5.37478
lowerback 6.32285 -8.30969 -9.12676
upperback -1.70932 -11.6365 6.9515
thorax -2.03449 -5.70969 13.2251
lowerneck -21.2522 4.2324 12.3876
upperneck 15.8183 4.19291 -10.6311
head 8.94365 1.59788 -5.13687
rclavicle 5.64548e-014 4.77083e-015
rhumerus -60.3862 -19.0748 -13.7368
rradius 32.4339
rwrist -1.39375
rhand -16.7419 -1.41907
rfingers 7.12502
rthumb 9.48441 -31.1856
lclavicle 5.64548e-014 4.77083e-015
lhumerus 14.5651 -3.0193 78.884
lradius 51.1967
lwrist 26.9571
lhand -14.8043 -6.46587
lfingers 7.12502
lthumb 11.3535 23.2068
rfemur -34.1732 -4.75594 15.6841
rtibia 35.8238
rfoot -1.83205 -13.0106
rtoes 0.677777
lfemur 14.2332 -3.17999 -26.1865
ltibia 22.7477
lfoot 12.7519 3.56311
ltoes -17.4786
340
root 0.6615 17.9052 -9.04268 6.50552 2.86827 5.09779
lowerback 6.33046 -8.22412 -8.8884
upperback -1.68116 -11.5006 6.93195
thorax -2.09755 -5.63946 13.0725
lowerneck -21.1825 4.20816 12.3384
upperneck 15.9921 4.20606 -10.6854
head 8.993 1.59803 -5.15072
rclavicle 6.16232e-014 -6.36111e-015
rhumerus -60.724 -18.9925 -15.0534
rradius 32.3282
rwrist -1.40353
rhand -16.6648 -1.27862
rfingers 7.12502
rthumb 9.55872 -31.0418
lclavicle 6.16232e-014 -6.36111e-015
lhumerus 14.0144 -4.17972 79.1323
lradius 51.1328
lwrist 26.0029
lhand -14.3751 -6.61196
lfingers 7.12502
lthumb 11.7675 23.0375
rfemur -33.202 -4.53141 16.0485
rtibia 35.7546
rfoot -2.34925 -13.6308
rtoes 0.759208
lfemur 13.1332 -2.79742 -25.5239
ltibia 25.4607
lfoot 13.5377 3.27107
ltoes -15.9482
